<svg width="32" height="32" viewBox="0 0 32 32" fill="none" xmlns="http://www.w3.org/2000/svg">
<path d="M17.9594 15.9339L27.6794 6.21394C27.8978 5.95887 28.012 5.63077 27.999 5.2952C27.986 4.95964 27.8469 4.64132 27.6095 4.40386C27.372 4.1664 27.0537 4.02729 26.7181 4.01433C26.3826 4.00137 26.0545 4.11551 25.7994 4.33394L16.0794 14.0539L6.35939 4.32061C6.10432 4.10217 5.77622 3.98803 5.44065 4.00099C5.10509 4.01396 4.78677 4.15307 4.54931 4.39052C4.31185 4.62798 4.17274 4.9463 4.15978 5.28187C4.14681 5.61744 4.26096 5.94554 4.47939 6.20061L14.1994 15.9339L4.46606 25.6539C4.32648 25.7735 4.21312 25.9206 4.13309 26.086C4.05306 26.2514 4.00809 26.4316 4.00099 26.6152C3.9939 26.7988 4.02484 26.9819 4.09187 27.153C4.15891 27.3241 4.26059 27.4795 4.39053 27.6095C4.52046 27.7394 4.67586 27.8411 4.84696 27.9081C5.01806 27.9752 5.20117 28.0061 5.3848 27.999C5.56842 27.9919 5.7486 27.9469 5.91402 27.8669C6.07944 27.7869 6.22653 27.6735 6.34606 27.5339L16.0794 17.8139L25.7994 27.5339C26.0545 27.7524 26.3826 27.8665 26.7181 27.8536C27.0537 27.8406 27.372 27.7015 27.6095 27.464C27.8469 27.2266 27.986 26.9082 27.999 26.5727C28.012 26.2371 27.8978 25.909 27.6794 25.6539L17.9594 15.9339Z" fill="#F2F2F2"/>
</svg>
